# xmcd
#
# Track frame offsets:
#	150
#	87451
#	127811
#	172595
#	239925
#	283972
# Disc length: 4311 seconds
# Revision: 1
# Processed by: cddbd v1.5.2PL0 Copyright (c) Steve Scherf et al.
#
# Submitted via: libkcddb 0.31
#
DISCID=5010d506
DTITLE=Ludwig Van Beethoven - Piano Concerto No. 5  Op. 73 "Empereur" - Piano Concerto No. 3 Op. 37
DYEAR=2008
DGENRE=Romantique
TTITLE0=Piano Concerto No. 5  Op. 73 "Empereur" - Allegro
TTITLE1=Piano Concerto No. 5  Op. 73 "Empereur" - Adagio un poco moto
TTITLE2=Piano Concerto No. 5  Op. 73 "Empereur" - Rondo (Allegro)
TTITLE3=Piano Concerto No. 3 Op. 37 - Allegro con brio
TTITLE4=Piano Concerto No. 3 Op. 37 - Largo
TTITLE5=Piano Concerto No. 3 Op. 37 - Rondo (Allegro)
EXTD=Rudolf Serkin - Philadelphia Orchestra - Eugene Ormandy
EXTT0=
EXTT1=
EXTT2=
EXTT3=
EXTT4=
EXTT5=
PLAYORDER=
